<?xml version="1.0" standalone="no"?>
<!DOCTYPE svg PUBLIC "-//W3C//DTD SVG 20010904//EN"
 "http://www.w3.org/TR/2001/REC-SVG-20010904/DTD/svg10.dtd">
<svg version="1.0" xmlns="http://www.w3.org/2000/svg"
 width="250.000000pt" height="250.000000pt" viewBox="0 0 250.000000 250.000000"
 preserveAspectRatio="xMidYMid meet">

<g transform="translate(0.000000,250.000000) scale(0.100000,-0.100000)"
fill="#000000" stroke="none">
<path d="M270 2125 l0 -105 220 0 220 0 2 -691 3 -691 485 688 485 689 104 3
c56 1 101 -1 99 -6 -1 -5 -241 -349 -531 -765 l-529 -757 -139 0 -139 0 0 710
0 710 -140 0 -140 0 0 -810 0 -810 349 0 349 0 248 350 c137 193 251 350 255
350 4 0 116 -157 250 -350 l243 -350 168 0 c92 0 168 2 168 5 0 3 -146 217
-325 475 -179 258 -325 474 -325 480 0 7 146 227 325 491 179 263 325 481 325
484 0 3 -170 5 -378 5 l-378 0 -280 -402 -279 -402 -3 402 -2 402 -355 0 -355
0 0 -105z"/>
</g>
</svg>
